<svg width="88" height="20" viewBox="0 0 88 20" fill="none" xmlns="http://www.w3.org/2000/svg">
<g clip-path="url(#clip0_1645_5678)">
<path d="M15.8354 5.83203H4.16878C3.94777 5.83203 3.73581 5.91983 3.57953 6.07611C3.42325 6.23239 3.33545 6.44435 3.33545 6.66536V17.4987C3.33545 17.7197 3.42325 17.9317 3.57953 18.088C3.73581 18.2442 3.94777 18.332 4.16878 18.332H15.8354C16.0565 18.332 16.2684 18.2442 16.4247 18.088C16.581 17.9317 16.6688 17.7197 16.6688 17.4987V6.66536C16.6688 6.44435 16.581 6.23239 16.4247 6.07611C16.2684 5.91983 16.0565 5.83203 15.8354 5.83203Z" stroke="white" stroke-width="2" stroke-linecap="round" stroke-linejoin="round"/>
<path d="M7.08545 7.49935V4.58268C7.08545 4.19966 7.16089 3.82039 7.30747 3.46652C7.45404 3.11266 7.66888 2.79113 7.93972 2.52029C8.21056 2.24945 8.53209 2.03461 8.88596 1.88803C9.23982 1.74146 9.61909 1.66602 10.0021 1.66602C10.3851 1.66602 10.7644 1.74146 11.1183 1.88803C11.4721 2.03461 11.7937 2.24945 12.0645 2.52029C12.3353 2.79113 12.5502 3.11266 12.6968 3.46652C12.8433 3.82039 12.9188 4.19966 12.9188 4.58268V7.49935" stroke="white" stroke-width="2" stroke-linecap="round" stroke-linejoin="round"/>
</g>
<g clip-path="url(#clip1_1645_5678)">
<path d="M28.2677 12.9626C29.5946 12.9626 30.6731 14.238 30.6731 15.8073V16.1558C30.6731 17.7251 29.5946 19.0005 28.2677 19.0005H20.5104L21.689 16.5862H27.7573C27.9576 16.5862 28.1194 16.3926 28.1194 16.1581V15.8096C28.1194 15.5727 27.9557 15.3814 27.7573 15.3814H22.4054C21.0785 15.3814 20 14.1059 20 12.5389V12.1904C20 10.6212 21.0785 9.3457 22.4054 9.3457H30.1627L28.9841 11.76H22.9157C22.7155 11.76 22.5537 11.9536 22.5537 12.1882V12.5366C22.5537 12.7735 22.7174 12.9648 22.9157 12.9648H28.2696L28.2677 12.9626Z" fill="white"/>
<path d="M33.1885 15.3775V9.3418H35.7402V12.9632H41.3079V9.3418H43.8596V19.0012H41.3079V15.3798H35.7402V19.0012H33.1885V15.3798V15.3775Z" fill="white"/>
<path d="M46.3784 9.33984H48.9302V18.9992H46.3784V9.33984Z" fill="white"/>
<path d="M54.0068 15.3778V18.9992H51.4551V9.33984H62.1282V11.7541H54.0068V12.9613H61.1075V15.3755H54.0068V15.3778Z" fill="white"/>
<path d="M65.8236 11.7541L64.645 9.33984H75.8285L74.6498 11.7541H71.5126V18.9992H68.9609V11.7541H65.8236Z" fill="white"/>
<path d="M83.8729 11.5354H78.5209L77.3423 9.12109H87.998L83.2835 18.7805H80.337L81.8103 15.7626L83.8729 11.5376V11.5354Z" fill="white"/>
<path d="M56.1003 2.16294H61.1056C61.3482 2.16294 61.5427 1.93063 61.5427 1.64593C61.5427 1.36122 61.3463 1.12891 61.1056 1.12891H56.1003C55.8576 1.12891 55.6631 1.36122 55.6631 1.64593C55.6631 1.93063 55.8595 2.16294 56.1003 2.16294Z" fill="white"/>
<path d="M58.3864 2.78906C58.1437 2.78906 57.9492 3.02138 57.9492 3.30608C57.9492 3.59078 58.1457 3.8231 58.3864 3.8231H60.526C60.7687 3.8231 60.9632 3.59078 60.9632 3.30608C60.9632 3.02138 60.7667 2.78906 60.526 2.78906H58.3864Z" fill="white"/>
<path d="M59.6343 4.47461H55.5765C55.284 4.47461 55.0469 4.75503 55.0469 5.10095C55.0469 5.44687 55.284 5.7273 55.5765 5.7273H59.6343C59.9268 5.7273 60.1639 5.44687 60.1639 5.10095C60.1639 4.75503 59.9268 4.47461 59.6343 4.47461Z" fill="white"/>
<path d="M58.0089 6.42383H55.8673C55.6259 6.42383 55.4302 6.65531 55.4302 6.94085V6.94312C55.4302 7.22867 55.6259 7.46014 55.8673 7.46014H58.0089C58.2503 7.46014 58.4461 7.22867 58.4461 6.94312V6.94085C58.4461 6.65531 58.2503 6.42383 58.0089 6.42383Z" fill="white"/>
<path d="M62.6191 6.81248H63.1776V2.28685H62.6191V1H65.0881L66.856 6.1178L68.4988 1H71.0024V2.28685H70.4439V6.81248H70.9947V8.09477H68.7511V6.81248H69.1632V2.73099L67.3664 8.00823H66.2552L64.4275 2.86992V6.8102H64.8743V8.0925H62.6191V6.8102V6.81248Z" fill="white"/>
<path d="M74.9832 6.81248H75.5802L75.3106 5.7921H73.4676L73.198 6.81248H73.8316V8.09477H71.5571V6.81248H72.0039L73.639 1H75.2259L76.8243 6.81248H77.2596V8.09477H74.9852V6.81248H74.9832ZM73.7796 4.59408H74.9909L74.3824 2.28685L73.7815 4.59408H73.7796Z" fill="white"/>
<path d="M77.7949 1H80.3621V2.28685H79.7285V6.81248H81.0342C81.0689 6.81248 81.1016 6.80109 81.1343 6.77831C81.1671 6.75554 81.196 6.72365 81.221 6.68721C81.246 6.65077 81.2672 6.60977 81.2826 6.56649C81.298 6.52322 81.3057 6.47994 81.3057 6.43895V5.48918H82.5883V8.09477H77.793V6.81248H78.415V2.28685H77.793V1H77.7949Z" fill="white"/>
<path d="M83.1216 1H85.6887V2.28685H85.0551V6.81248H86.3608C86.3955 6.81248 86.4282 6.80109 86.461 6.77831C86.4937 6.75554 86.5226 6.72365 86.5476 6.68721C86.5727 6.65077 86.5939 6.60977 86.6093 6.56649C86.6247 6.52322 86.6324 6.47994 86.6324 6.43895V5.48918H87.915V8.09477H83.1196V6.81248H83.7417V2.28685H83.1196V1H83.1216Z" fill="white"/>
</g>
<defs>
<clipPath id="clip0_1645_5678">
<rect width="20" height="20" fill="white"/>
</clipPath>
<clipPath id="clip1_1645_5678">
<rect width="68" height="18" fill="white" transform="translate(20 1)"/>
</clipPath>
</defs>
</svg>
