<svg width="80" height="20" viewBox="0 0 80 20" fill="none" xmlns="http://www.w3.org/2000/svg">
<path d="M15.8354 5.83203H4.16878C3.94777 5.83203 3.73581 5.91983 3.57953 6.07611C3.42325 6.23239 3.33545 6.44435 3.33545 6.66536V17.4987C3.33545 17.7197 3.42325 17.9317 3.57953 18.088C3.73581 18.2442 3.94777 18.332 4.16878 18.332H15.8354C16.0565 18.332 16.2684 18.2442 16.4247 18.088C16.581 17.9317 16.6688 17.7197 16.6688 17.4987V6.66536C16.6688 6.44435 16.581 6.23239 16.4247 6.07611C16.2684 5.91983 16.0565 5.83203 15.8354 5.83203Z" stroke="white" stroke-width="2" stroke-linecap="round" stroke-linejoin="round"/>
<path d="M7.08545 7.49935V4.58268C7.08545 4.19966 7.16089 3.82039 7.30747 3.46652C7.45404 3.11266 7.66888 2.79113 7.93972 2.52029C8.21056 2.24945 8.53209 2.03461 8.88596 1.88803C9.23982 1.74146 9.61909 1.66602 10.0021 1.66602C10.3851 1.66602 10.7644 1.74146 11.1183 1.88803C11.4721 2.03461 11.7937 2.24945 12.0645 2.52029C12.3353 2.79113 12.5502 3.11266 12.6968 3.46652C12.8433 3.82039 12.9188 4.19966 12.9188 4.58268V7.49935" stroke="white" stroke-width="2" stroke-linecap="round" stroke-linejoin="round"/>
<g clip-path="url(#clip0_1645_5677)">
<path d="M24 17.0442H24.8145V10.1346H24V8.16992H27.6043L30.1861 15.9872L32.582 8.16992H36.2371V10.1346H35.4226V17.0442H36.226V19.0029H32.952V17.0442H33.5522V10.8143L30.9307 18.8733H29.308L26.6405 11.0285V17.0442H27.2931V19.0029H24V17.0442Z" fill="white"/>
<path d="M42.0454 17.0442H42.9171L42.5249 15.4862H39.8336L39.4414 17.0442H40.3655V19.0029H37.0454V17.0442H37.698L40.0829 8.16992H42.3979L44.7303 17.0442H45.3655V19.0029H42.0454V17.0442ZM40.2909 13.6572H42.0581L41.1689 10.1346L40.2909 13.6572Z" fill="white"/>
<path d="M46.1514 8.16992H50.783C51.2339 8.16992 51.6356 8.25244 51.9897 8.41943C52.3438 8.58642 52.6423 8.80843 52.8852 9.08741C53.1281 9.36639 53.3139 9.69055 53.4425 10.0599C53.5711 10.4293 53.6362 10.8143 53.6362 11.2131C53.6362 11.5805 53.6045 11.9008 53.541 12.1778C53.4775 12.4548 53.3854 12.7004 53.2647 12.9145C53.144 13.1287 52.9948 13.3173 52.8169 13.4823C52.6391 13.6473 52.4375 13.7947 52.2104 13.9283C52.4073 14.052 52.5804 14.2406 52.7296 14.4961C52.8789 14.7515 52.9932 15.0815 53.071 15.4862L53.3647 16.8949H54.0872L54.0983 19.0029H51.5578L51.2117 16.4312C51.1767 16.1267 51.1243 15.8634 51.0529 15.6414C50.9814 15.4194 50.8862 15.2387 50.7671 15.0992C50.648 14.9597 50.5019 14.8556 50.3304 14.7888C50.159 14.722 49.9557 14.6886 49.7207 14.6886H48.9761V17.0461H49.7779V19.0049H46.1514V17.0461H47.058V10.1365H46.1514V8.17189V8.16992ZM48.9761 10.1346V12.7573H50.1256C50.3447 12.7573 50.5416 12.7318 50.7179 12.6827C50.8941 12.6336 51.0434 12.555 51.1688 12.4469C51.2942 12.3408 51.3895 12.2053 51.4578 12.0442C51.5245 11.8831 51.5594 11.6905 51.5594 11.4646C51.5594 11.0461 51.4387 10.7181 51.1958 10.4862C50.9529 10.2524 50.5972 10.1365 50.1272 10.1365H48.9776L48.9761 10.1346Z" fill="white"/>
<path d="M54.9874 8.16992H58.7346V10.1346H57.8105V13.2858L60.6114 10.2623V8.16992H63.5965V10.278H62.9439L60.0271 13.3782L62.8216 16.8792H63.5314V19.001H60.6273V16.8792L57.8089 13.3919V17.0442H58.733V19.0029H54.9858V17.0442H55.8925V10.1346H54.9858V8.16992H54.9874Z" fill="white"/>
<path d="M64.5444 8.16992H71.5085V11.8634H69.6254V10.3271H67.3787V12.4627H69.1173V14.5353H67.3787V17.0442H69.6254V15.1228H71.5085V19.0029H64.5444V17.0442H65.4622V10.3271H64.5444V8.16992Z" fill="white"/>
<path d="M74.0138 17.0442H74.9205V10.0638H73.8582V11.4646H71.9751V8.16992H79.9379V11.4646H78.0437V10.0638H76.8369V17.0442H77.761V19.0029H74.0138V17.0442Z" fill="white"/>
<path d="M60.1162 2.86248C60.1051 2.77014 60.0796 2.68369 60.0384 2.60118C59.9971 2.51866 59.9431 2.4499 59.8796 2.39096C59.8145 2.33202 59.7414 2.28487 59.6589 2.25147C59.5763 2.21807 59.4922 2.20039 59.4017 2.20039C59.3207 2.20039 59.2461 2.21022 59.1746 2.23183C59.1047 2.25344 59.0428 2.28487 58.9904 2.32809C58.938 2.37132 58.8967 2.42633 58.8666 2.49509C58.8364 2.56385 58.8205 2.6444 58.8205 2.74067C58.8205 2.85855 58.8412 2.95285 58.8824 3.02358C58.9237 3.0943 58.9777 3.15128 59.0412 3.1945C59.1063 3.23969 59.1778 3.27505 59.2572 3.30059C59.3366 3.32613 59.4128 3.3556 59.4874 3.38703L60.3654 3.75049C60.4861 3.80354 60.6004 3.87623 60.7068 3.96857C60.8132 4.0609 60.9053 4.17289 60.9831 4.30452C61.0609 4.43615 61.1212 4.58743 61.1673 4.75835C61.2117 4.92927 61.234 5.12181 61.234 5.33399C61.234 5.62279 61.1911 5.88802 61.1054 6.1277C61.0196 6.36739 60.8989 6.57171 60.7433 6.74263C60.5877 6.91356 60.402 7.04715 60.1844 7.14145C59.9669 7.23576 59.7272 7.28291 59.4636 7.28291C59.2778 7.28291 59.1032 7.25737 58.9396 7.20629C58.7745 7.15521 58.6236 7.08055 58.4887 6.98232C58.3521 6.88409 58.233 6.76817 58.1314 6.63261C58.0298 6.49705 57.9504 6.34381 57.8917 6.17289H57.563V4.98428H58.7173V5.22986C58.7173 5.34774 58.7332 5.45776 58.7634 5.55796C58.7935 5.65815 58.8412 5.7446 58.9015 5.81925C58.9618 5.89391 59.0412 5.95088 59.1349 5.99018C59.2286 6.03143 59.3381 6.05108 59.4636 6.05108C59.6557 6.05108 59.8002 5.99607 59.9002 5.88801C60.0003 5.778 60.0495 5.62672 60.0495 5.43222C60.0495 5.33202 60.032 5.24951 59.9971 5.18075C59.9621 5.11395 59.9161 5.05697 59.8621 5.01179C59.8065 4.9666 59.7446 4.92731 59.6763 4.89587C59.6081 4.86444 59.5414 4.83497 59.4747 4.80943L58.7443 4.5167C58.6062 4.46365 58.4728 4.39096 58.3442 4.29666C58.2156 4.20236 58.1012 4.08448 58.0028 3.94106C57.9044 3.79961 57.825 3.63261 57.7662 3.44204C57.7075 3.25147 57.6789 3.0334 57.6789 2.78782C57.6789 2.50295 57.7218 2.24951 57.8059 2.0275C57.8917 1.8055 58.0107 1.6169 58.1632 1.46562C58.3156 1.31238 58.4982 1.19646 58.7094 1.11788C58.9206 1.03929 59.1508 1 59.4017 1C59.6001 1 59.7827 1.0275 59.951 1.08448C60.1193 1.14145 60.2702 1.21611 60.402 1.31238C60.5353 1.40668 60.6481 1.5167 60.7402 1.63851C60.8323 1.76031 60.9037 1.88802 60.9529 2.01965H61.2721V3.21218H60.1178V2.86444L60.1162 2.86248Z" fill="white"/>
<path d="M61.5659 1.17773H63.5046V2.26221H63.0616V4.74551C63.0616 4.97145 63.0823 5.16398 63.1235 5.32115C63.1648 5.47832 63.2236 5.60799 63.2966 5.70819C63.3712 5.80838 63.4586 5.88107 63.5618 5.92823C63.6634 5.97341 63.7761 5.99699 63.8968 5.99699C64.0175 5.99699 64.1366 5.97734 64.2398 5.93805C64.343 5.89876 64.4319 5.83196 64.5049 5.73569C64.578 5.63942 64.6351 5.51172 64.6732 5.35062C64.7129 5.18952 64.732 4.98913 64.732 4.74748V2.26418H64.2191V1.17773H66.1578V2.26221H65.772V4.59031C65.772 5.01074 65.7228 5.38599 65.6259 5.71408C65.5275 6.04217 65.3941 6.31919 65.2226 6.54512C65.0511 6.77105 64.8511 6.94394 64.6193 7.06182C64.389 7.1797 64.1413 7.23864 63.8777 7.23864C63.6142 7.23864 63.3712 7.1797 63.1442 7.06379C62.9171 6.94591 62.7187 6.77695 62.5488 6.55494C62.3789 6.33294 62.2455 6.06182 62.1486 5.74355C62.0502 5.42528 62.0026 5.06379 62.0026 4.663V2.26418H61.5659V1.17773Z" fill="white"/>
<path d="M66.7422 1.17773H68.9746C69.2239 1.17773 69.4526 1.22489 69.6606 1.32115C69.8686 1.41742 70.048 1.54709 70.2004 1.71015C70.3512 1.87322 70.4687 2.06182 70.5545 2.274C70.6402 2.48618 70.6815 2.71015 70.6815 2.94198C70.6815 3.22096 70.6482 3.48225 70.5815 3.72587C70.5148 3.96948 70.41 4.1797 70.2703 4.35848C70.1305 4.53726 69.9527 4.67872 69.7384 4.78284C69.524 4.88697 69.27 4.93805 68.9762 4.93805H68.303V6.0795H68.746V7.16005H66.7422V6.0795H67.2423V2.26418H66.7422V1.17773ZM68.303 2.26418V3.87125H68.7396C68.9826 3.87125 69.1747 3.80838 69.3176 3.68265C69.4605 3.55691 69.5319 3.35652 69.5319 3.08343C69.5319 2.82803 69.4653 2.62764 69.3303 2.48422C69.1953 2.3408 69 2.26614 68.7396 2.26614H68.303V2.26418Z" fill="white"/>
<path d="M71.2085 1.17773H75.0557V3.21899H74.0157V2.37027H72.7741V3.55102H73.7347V4.6964H72.7741V6.08147H74.0157V5.02056H75.0557V7.16398H71.2085V6.08343H71.715V2.37027H71.2085V1.17773Z" fill="white"/>
<path d="M75.6116 1.17773H78.1695C78.4188 1.17773 78.6411 1.22292 78.8364 1.31526C79.0317 1.4076 79.1968 1.5294 79.3302 1.68461C79.4636 1.83785 79.5668 2.01663 79.6382 2.22096C79.7097 2.42528 79.7446 2.63746 79.7446 2.85946C79.7446 3.06182 79.7271 3.2406 79.6922 3.39188C79.6573 3.54512 79.6065 3.68068 79.5398 3.79856C79.4731 3.91644 79.3905 4.02056 79.2921 4.1129C79.1936 4.20327 79.0825 4.28579 78.9571 4.35848C79.065 4.42724 79.1619 4.53137 79.2445 4.67282C79.327 4.81428 79.3905 4.99502 79.4334 5.21899L79.5954 5.99699H79.9939L80.0002 7.16202H78.5966L78.4045 5.74158C78.3855 5.57263 78.3569 5.42724 78.3172 5.30544C78.2775 5.18363 78.2251 5.08343 78.1584 5.00485C78.0917 4.92823 78.0123 4.86929 77.9171 4.83392C77.8218 4.79856 77.7106 4.77891 77.5804 4.77891H77.1692V6.08147H77.6122V7.16202H75.6084V6.08147H76.1086V2.26418H75.6084V1.17773H75.6116ZM77.1708 2.26418V3.71212H77.8059C77.9266 3.71212 78.0361 3.69836 78.133 3.67086C78.2298 3.64335 78.3124 3.60013 78.3823 3.54119C78.4521 3.48225 78.5045 3.4076 78.5411 3.31919C78.5776 3.22881 78.5966 3.12272 78.5966 2.99895C78.5966 2.76713 78.5299 2.58638 78.395 2.45868C78.26 2.33098 78.0647 2.26614 77.8043 2.26614H77.1692L77.1708 2.26418Z" fill="white"/>
<path d="M52.3281 1.91331H56.3627C56.558 1.91331 56.7152 1.71685 56.7152 1.47716C56.7152 1.23748 56.5564 1.04102 56.3627 1.04102H52.3281C52.1328 1.04102 51.9756 1.23748 51.9756 1.47716C51.9756 1.71685 52.1344 1.91331 52.3281 1.91331Z" fill="white"/>
<path d="M54.1713 2.44141C53.976 2.44141 53.8188 2.63787 53.8188 2.87756C53.8188 3.11724 53.9776 3.3137 54.1713 3.3137H55.8973C56.0926 3.3137 56.2498 3.11724 56.2498 2.87756C56.2498 2.63787 56.091 2.44141 55.8973 2.44141H54.1713Z" fill="white"/>
<path d="M55.178 3.86328H51.9071C51.6712 3.86328 51.48 4.09989 51.48 4.39177C51.48 4.68364 51.6712 4.92026 51.9071 4.92026H55.178C55.4138 4.92026 55.6051 4.68364 55.6051 4.39177C55.6051 4.09989 55.4138 3.86328 55.178 3.86328Z" fill="white"/>
<path d="M53.8665 5.50781H52.1406C51.9459 5.50781 51.7881 5.70308 51.7881 5.94396V5.94593C51.7881 6.18681 51.9459 6.38208 52.1406 6.38208H53.8665C54.0612 6.38208 54.219 6.18681 54.219 5.94593V5.94396C54.219 5.70308 54.0612 5.50781 53.8665 5.50781Z" fill="white"/>
</g>
<defs>
<clipPath id="clip0_1645_5677">
<rect width="56" height="18" fill="white" transform="translate(24 1)"/>
</clipPath>
</defs>
</svg>
