<svg width="100" height="55" viewBox="0 0 100 55" fill="none" xmlns="http://www.w3.org/2000/svg">
<g clip-path="url(#clip0_1905_8763)">
<path d="M12.1603 47.4981C14.1117 47.4981 15.6965 49.0816 15.6965 51.0316V51.4665C15.6965 53.4164 14.1117 55 12.1603 55H0.749817L2.48362 52.0006H11.4081C11.7014 52.0006 11.9403 51.7596 11.9403 51.4665V51.0316C11.9403 50.7385 11.7014 50.4974 11.4081 50.4974H3.5362C1.58479 50.4974 0 48.9138 0 46.9639V46.529C0 44.5791 1.58479 42.9955 3.5362 42.9955H14.9443L13.2105 45.9948H4.28602C3.99271 45.9948 3.75145 46.2336 3.75145 46.529V46.9639C3.75145 47.257 3.99271 47.4957 4.28602 47.4957H12.1579L12.1603 47.4981Z" fill="#1F3A93"/>
<path d="M19.3959 50.4975V42.9979H23.1497V47.4981H31.3386V42.9979H35.0924V55.0001H31.3386V50.4999H23.1497V55.0001H19.3959V50.4999V50.4975Z" fill="#1F3A93"/>
<path d="M38.7918 42.9979H42.5456V55.0001H38.7918V42.9979Z" fill="#1F3A93"/>
<path d="M50.0106 50.4974V54.9976H46.2568V42.9955H61.951V45.9948H50.0083V47.4957H60.4489V50.4951H50.0083L50.0106 50.4974Z" fill="#1F3A93"/>
<path d="M67.3865 45.9973L65.6527 42.9979H82.099L80.3652 45.9973H75.7528V54.9977H71.999V45.9973H67.3865Z" fill="#1F3A93"/>
<path d="M93.9305 45.7254H86.061L84.3272 42.7261H99.9976L93.0624 54.7259H88.7291L90.8958 50.9749L93.9281 45.7254H93.9305Z" fill="url(#paint0_linear_1905_8763)"/>
<path d="M42.6142 0.0259991C39.4281 0.0259991 36.8451 2.607 36.8451 5.79072C36.8451 8.97443 39.4281 11.5554 42.6142 11.5554H44.3456C44.4994 11.5578 44.6886 11.5578 44.9488 11.5602C48.0238 11.5814 46.6968 11.5271 49.5825 11.6287L49.7717 11.6358C50.5807 11.676 51.1602 12.2503 51.1602 13.0185C51.1602 13.7866 50.5358 14.4106 49.767 14.4106H48.8161C48.5985 14.4224 48.3833 14.4248 48.187 14.4248C44.5845 14.4319 40.9845 14.4177 37.382 14.439C36.8143 14.4437 36.0835 14.4083 35.705 14.725C34.0895 16.0746 32.578 17.5494 30.9317 19.0668C37.8054 19.0668 44.3929 19.0881 50.9781 19.0361C51.7279 19.029 52.5014 18.665 53.2157 18.3554C56.0399 17.1405 57.6484 14.2286 57.128 11.3734C56.7093 9.08552 54.7626 7.83283 51.3281 7.77138C50.7557 7.76193 50.2803 7.76429 49.864 7.76193C49.8238 7.76429 49.7859 7.75956 49.7457 7.75956H43.5225C43.3971 7.76193 43.2718 7.76429 43.1488 7.75956H42.9548C42.1884 7.75956 41.5663 7.13795 41.5663 6.37215C41.5663 5.60636 42.1884 4.98474 42.9548 4.98474H49.0077C49.0077 4.98474 49.0196 4.98474 49.0243 4.98474C49.7717 4.98238 50.4979 4.98002 51.2075 4.97765C58.6655 4.95402 64.3565 4.94929 72.8718 4.9422C73.0941 4.9422 73.3945 4.93511 73.8841 4.95165C68.827 9.69532 63.8669 14.3704 58.5354 19.3694C60.6949 19.3694 62.1709 19.3835 63.7936 19.3977C65.3665 19.4095 66.483 18.9983 67.5923 17.8874C71.6158 13.8552 75.7362 9.92458 79.8165 5.94908L83.1114 2.76773C84.1521 1.76321 83.4402 0 81.9926 0H80.8265L42.6071 0.0259991H42.6142Z" fill="#1F3A93"/>
<path d="M23.7671 25.5831C29.6355 25.5926 44.549 25.5973 56.5177 25.5973C58.3674 25.5973 60.0303 25.3869 62.6132 23.125L65.3831 20.7331L29.8224 20.6575L23.7647 25.5808L23.7671 25.5831Z" fill="#1F3A93"/>
<path d="M47.9575 33.8036C49.6728 33.8036 51.0632 32.4142 51.0632 30.7003C51.0632 28.9863 49.6728 27.5969 47.9575 27.5969C46.2423 27.5969 44.8518 28.9863 44.8518 30.7003C44.8518 32.4142 46.2423 33.8036 47.9575 33.8036Z" fill="url(#paint1_linear_1905_8763)"/>
<path d="M34.2621 33.8036C35.9774 33.8036 37.3678 32.4142 37.3678 30.7003C37.3678 28.9863 35.9774 27.5969 34.2621 27.5969C32.5469 27.5969 31.1564 28.9863 31.1564 30.7003C31.1564 32.4142 32.5469 33.8036 34.2621 33.8036Z" fill="url(#paint2_linear_1905_8763)"/>
<path d="M19.5047 3.77463H34.3331C35.0498 3.77463 35.6317 3.1932 35.6317 2.47704C35.6317 1.76088 35.0498 1.17944 34.3331 1.17944H19.5047C18.788 1.17944 18.2061 1.76088 18.2061 2.47704C18.2061 3.1932 18.788 3.77463 19.5047 3.77463Z" fill="url(#paint3_linear_1905_8763)"/>
<path d="M26.2791 5.34399C25.5624 5.34399 24.9805 5.92543 24.9805 6.64159C24.9805 7.35775 25.5624 7.93918 26.2791 7.93918H32.6206C33.3373 7.93918 33.9192 7.35775 33.9192 6.64159C33.9192 5.92543 33.3373 5.34399 32.6206 5.34399H26.2791Z" fill="url(#paint4_linear_1905_8763)"/>
<path d="M29.9737 9.56299H17.9554C17.088 9.56299 16.3848 10.2656 16.3848 11.1324C16.3848 11.9991 17.088 12.7018 17.9554 12.7018H29.9737C30.8412 12.7018 31.5443 11.9991 31.5443 11.1324C31.5443 10.2656 30.8412 9.56299 29.9737 9.56299Z" fill="url(#paint5_linear_1905_8763)"/>
<path d="M25.1579 14.446H18.8187C18.1016 14.446 17.5202 15.0265 17.5202 15.7425C17.5202 16.4584 18.1016 17.0389 18.8187 17.0389H25.1579C25.8751 17.0389 26.4565 16.4584 26.4565 15.7425C26.4565 15.0265 25.8751 14.446 25.1579 14.446Z" fill="url(#paint6_linear_1905_8763)"/>
</g>
<defs>
<linearGradient id="paint0_linear_1905_8763" x1="78.4445" y1="52.2323" x2="102.671" y2="43.9344" gradientUnits="userSpaceOnUse">
<stop stop-color="#E6AC31"/>
<stop offset="0.32" stop-color="#EBB124"/>
<stop offset="0.86" stop-color="#F9C006"/>
</linearGradient>
<linearGradient id="paint1_linear_1905_8763" x1="44.8518" y1="30.7003" x2="51.0609" y2="30.7003" gradientUnits="userSpaceOnUse">
<stop stop-color="#E6AC31"/>
<stop offset="0.32" stop-color="#EBB124"/>
<stop offset="0.86" stop-color="#F9C006"/>
</linearGradient>
<linearGradient id="paint2_linear_1905_8763" x1="31.1564" y1="30.7003" x2="37.3678" y2="30.7003" gradientUnits="userSpaceOnUse">
<stop stop-color="#E6AC31"/>
<stop offset="0.32" stop-color="#EBB124"/>
<stop offset="0.86" stop-color="#F9C006"/>
</linearGradient>
<linearGradient id="paint3_linear_1905_8763" x1="38.612" y1="2.35886" x2="20.7702" y2="2.54113" gradientUnits="userSpaceOnUse">
<stop stop-color="#E6AC31"/>
<stop offset="0.32" stop-color="#EBB124"/>
<stop offset="0.86" stop-color="#F9C006"/>
</linearGradient>
<linearGradient id="paint4_linear_1905_8763" x1="35.4448" y1="6.58014" x2="26.2956" y2="6.67482" gradientUnits="userSpaceOnUse">
<stop stop-color="#E6AC31"/>
<stop offset="0.32" stop-color="#EBB124"/>
<stop offset="0.86" stop-color="#F9C006"/>
</linearGradient>
<linearGradient id="paint5_linear_1905_8763" x1="34.1391" y1="11.0284" x2="18.6153" y2="11.187" gradientUnits="userSpaceOnUse">
<stop stop-color="#E6AC31"/>
<stop offset="0.32" stop-color="#EBB124"/>
<stop offset="0.86" stop-color="#F9C006"/>
</linearGradient>
<linearGradient id="paint6_linear_1905_8763" x1="29.1766" y1="15.4056" x2="17.7733" y2="15.9406" gradientUnits="userSpaceOnUse">
<stop stop-color="#E6AC31"/>
<stop offset="0.32" stop-color="#EBB124"/>
<stop offset="0.86" stop-color="#F9C006"/>
</linearGradient>
<clipPath id="clip0_1905_8763">
<rect width="100" height="55" fill="white"/>
</clipPath>
</defs>
</svg>
